<?xml version="1.0" encoding="utf-8"?>
<!-- Generator: Adobe Illustrator 16.0.4, SVG Export Plug-In . SVG Version: 6.00 Build 0)  -->
<!DOCTYPE svg PUBLIC "-//W3C//DTD SVG 1.1//EN" "http://www.w3.org/Graphics/SVG/1.1/DTD/svg11.dtd">
<svg version="1.1" id="Layer_1" xmlns="http://www.w3.org/2000/svg" xmlns:xlink="http://www.w3.org/1999/xlink" x="0px" y="0px"
	 width="33.99px" height="37.396px" viewBox="0 0 33.99 37.396" enable-background="new 0 0 33.99 37.396" xml:space="preserve">
<pattern  x="1.523" y="0.775" width="80.539" height="80.676" patternUnits="userSpaceOnUse" id="Unnamed_Pattern" viewBox="0 -80.676 80.539 80.676" overflow="visible">
	<g>
		<polygon fill="none" points="0,-80.676 80.539,-80.676 80.539,0 0,0 		"/>
		<polygon fill="#010101" points="5.222,-0.791 0.804,-5.075 0.357,-4.641 4.775,-0.356 		"/>
		<polygon fill="#010101" points="0.804,-0.357 5.222,-4.641 4.774,-5.074 0.357,-0.791 		"/>
		<polygon fill="#010101" points="10.988,-0.791 6.57,-5.075 6.123,-4.641 10.541,-0.356 		"/>
		<polygon fill="#010101" points="6.57,-0.357 10.988,-4.641 10.54,-5.074 6.123,-0.791 		"/>
		<polygon fill="#010101" points="16.754,-0.791 12.336,-5.075 11.889,-4.641 16.307,-0.356 		"/>
		<polygon fill="#010101" points="12.336,-0.357 16.754,-4.641 16.306,-5.074 11.889,-0.791 		"/>
		<polygon fill="#010101" points="22.52,-0.791 18.102,-5.075 17.655,-4.641 22.073,-0.356 		"/>
		<polygon fill="#010101" points="18.103,-0.357 22.521,-4.641 22.072,-5.074 17.655,-0.791 		"/>
		<polygon fill="#010101" points="28.287,-0.791 23.868,-5.075 23.421,-4.641 27.839,-0.356 		"/>
		<polygon fill="#010101" points="23.869,-0.357 28.287,-4.641 27.839,-5.074 23.422,-0.791 		"/>
		<polygon fill="#010101" points="34.053,-0.791 29.635,-5.075 29.188,-4.641 33.605,-0.356 		"/>
		<polygon fill="#010101" points="29.635,-0.357 34.053,-4.641 33.605,-5.074 29.188,-0.791 		"/>
		<polygon fill="#010101" points="39.819,-0.791 35.401,-5.075 34.954,-4.641 39.372,-0.356 		"/>
		<polygon fill="#010101" points="35.401,-0.357 39.819,-4.641 39.371,-5.074 34.954,-0.791 		"/>
		<polygon fill="#010101" points="45.585,-0.791 41.167,-5.075 40.72,-4.641 45.138,-0.356 		"/>
		<polygon fill="#010101" points="41.167,-0.357 45.585,-4.641 45.137,-5.074 40.72,-0.791 		"/>
		<polygon fill="#010101" points="51.351,-0.791 46.933,-5.075 46.486,-4.641 50.904,-0.356 		"/>
		<polygon fill="#010101" points="46.933,-0.357 51.351,-4.641 50.903,-5.074 46.486,-0.791 		"/>
		<polygon fill="#010101" points="57.117,-0.791 52.699,-5.075 52.252,-4.641 56.67,-0.356 		"/>
		<polygon fill="#010101" points="52.7,-0.357 57.118,-4.641 56.669,-5.074 52.252,-0.791 		"/>
		<polygon fill="#010101" points="62.883,-0.791 58.465,-5.075 58.019,-4.641 62.437,-0.356 		"/>
		<polygon fill="#010101" points="58.466,-0.357 62.884,-4.641 62.436,-5.074 58.019,-0.791 		"/>
		<polygon fill="#010101" points="68.649,-0.791 64.231,-5.075 63.785,-4.641 68.203,-0.356 		"/>
		<polygon fill="#010101" points="64.232,-0.357 68.65,-4.641 68.202,-5.074 63.785,-0.791 		"/>
		<polygon fill="#010101" points="74.416,-0.791 69.998,-5.075 69.551,-4.641 73.969,-0.356 		"/>
		<polygon fill="#010101" points="69.998,-0.357 74.416,-4.641 73.968,-5.074 69.551,-0.791 		"/>
		<polygon fill="#010101" points="80.182,-0.791 75.764,-5.075 75.317,-4.641 79.735,-0.356 		"/>
		<polygon fill="#010101" points="75.764,-0.357 80.182,-4.641 79.734,-5.074 75.317,-0.791 		"/>
		<polygon fill="#010101" points="5.222,-6.165 0.804,-10.449 0.357,-10.016 4.775,-5.731 		"/>
		<polygon fill="#010101" points="0.804,-5.731 5.222,-10.016 4.774,-10.448 0.357,-6.166 		"/>
		<polygon fill="#010101" points="10.988,-6.165 6.57,-10.449 6.123,-10.016 10.541,-5.731 		"/>
		<polygon fill="#010101" points="6.57,-5.731 10.988,-10.016 10.54,-10.448 6.123,-6.166 		"/>
		<polygon fill="#010101" points="16.754,-6.165 12.336,-10.449 11.889,-10.016 16.307,-5.731 		"/>
		<polygon fill="#010101" points="12.336,-5.731 16.754,-10.016 16.306,-10.448 11.889,-6.166 		"/>
		<polygon fill="#010101" points="22.52,-6.165 18.102,-10.449 17.655,-10.016 22.073,-5.731 		"/>
		<polygon fill="#010101" points="18.103,-5.731 22.521,-10.016 22.072,-10.448 17.655,-6.166 		"/>
		<polygon fill="#010101" points="28.287,-6.165 23.868,-10.449 23.421,-10.016 27.839,-5.731 		"/>
		<polygon fill="#010101" points="23.869,-5.731 28.287,-10.016 27.839,-10.448 23.422,-6.166 		"/>
		<polygon fill="#010101" points="34.053,-6.165 29.635,-10.449 29.188,-10.016 33.605,-5.731 		"/>
		<polygon fill="#010101" points="29.635,-5.731 34.053,-10.016 33.605,-10.448 29.188,-6.166 		"/>
		<polygon fill="#010101" points="39.819,-6.165 35.401,-10.449 34.954,-10.016 39.372,-5.731 		"/>
		<polygon fill="#010101" points="35.401,-5.731 39.819,-10.016 39.371,-10.448 34.954,-6.166 		"/>
		<polygon fill="#010101" points="45.585,-6.165 41.167,-10.449 40.72,-10.016 45.138,-5.731 		"/>
		<polygon fill="#010101" points="41.167,-5.731 45.585,-10.016 45.137,-10.448 40.72,-6.166 		"/>
		<polygon fill="#010101" points="51.351,-6.165 46.933,-10.449 46.486,-10.016 50.904,-5.731 		"/>
		<polygon fill="#010101" points="46.933,-5.731 51.351,-10.016 50.903,-10.448 46.486,-6.166 		"/>
		<polygon fill="#010101" points="57.117,-6.165 52.699,-10.449 52.252,-10.016 56.67,-5.731 		"/>
		<polygon fill="#010101" points="52.7,-5.731 57.118,-10.016 56.669,-10.448 52.252,-6.166 		"/>
		<polygon fill="#010101" points="62.883,-6.165 58.465,-10.449 58.019,-10.016 62.437,-5.731 		"/>
		<polygon fill="#010101" points="58.466,-5.731 62.884,-10.016 62.436,-10.448 58.019,-6.166 		"/>
		<polygon fill="#010101" points="68.649,-6.165 64.231,-10.449 63.785,-10.016 68.203,-5.731 		"/>
		<polygon fill="#010101" points="64.232,-5.731 68.65,-10.016 68.202,-10.448 63.785,-6.166 		"/>
		<polygon fill="#010101" points="74.416,-6.165 69.998,-10.449 69.551,-10.016 73.969,-5.731 		"/>
		<polygon fill="#010101" points="69.998,-5.731 74.416,-10.016 73.968,-10.448 69.551,-6.166 		"/>
		<polygon fill="#010101" points="80.182,-6.165 75.764,-10.449 75.317,-10.016 79.735,-5.731 		"/>
		<polygon fill="#010101" points="75.764,-5.731 80.182,-10.016 79.734,-10.448 75.317,-6.166 		"/>
		<polygon fill="#010101" points="5.222,-11.54 0.804,-15.824 0.357,-15.39 4.775,-11.106 		"/>
		<polygon fill="#010101" points="0.804,-11.106 5.222,-15.391 4.774,-15.823 0.357,-11.54 		"/>
		<polygon fill="#010101" points="10.988,-11.54 6.57,-15.824 6.123,-15.39 10.541,-11.106 		"/>
		<polygon fill="#010101" points="6.57,-11.106 10.988,-15.391 10.54,-15.823 6.123,-11.54 		"/>
		<polygon fill="#010101" points="16.754,-11.54 12.336,-15.824 11.889,-15.39 16.307,-11.106 		"/>
		<polygon fill="#010101" points="12.336,-11.106 16.754,-15.391 16.306,-15.823 11.889,-11.54 		"/>
		<polygon fill="#010101" points="22.52,-11.54 18.102,-15.824 17.655,-15.39 22.073,-11.106 		"/>
		<polygon fill="#010101" points="18.103,-11.106 22.521,-15.391 22.072,-15.823 17.655,-11.54 		"/>
		<polygon fill="#010101" points="28.287,-11.54 23.868,-15.824 23.421,-15.39 27.839,-11.106 		"/>
		<polygon fill="#010101" points="23.869,-11.106 28.287,-15.391 27.839,-15.823 23.422,-11.54 		"/>
		<polygon fill="#010101" points="34.053,-11.54 29.635,-15.824 29.188,-15.39 33.605,-11.106 		"/>
		<polygon fill="#010101" points="29.635,-11.106 34.053,-15.391 33.605,-15.823 29.188,-11.54 		"/>
		<polygon fill="#010101" points="39.819,-11.54 35.401,-15.824 34.954,-15.39 39.372,-11.106 		"/>
		<polygon fill="#010101" points="35.401,-11.106 39.819,-15.391 39.371,-15.823 34.954,-11.54 		"/>
		<polygon fill="#010101" points="45.585,-11.54 41.167,-15.824 40.72,-15.39 45.138,-11.106 		"/>
		<polygon fill="#010101" points="41.167,-11.106 45.585,-15.391 45.137,-15.823 40.72,-11.54 		"/>
		<polygon fill="#010101" points="51.351,-11.54 46.933,-15.824 46.486,-15.39 50.904,-11.106 		"/>
		<polygon fill="#010101" points="46.933,-11.106 51.351,-15.391 50.903,-15.823 46.486,-11.54 		"/>
		<polygon fill="#010101" points="57.117,-11.54 52.699,-15.824 52.252,-15.39 56.67,-11.106 		"/>
		<polygon fill="#010101" points="52.7,-11.106 57.118,-15.391 56.669,-15.823 52.252,-11.54 		"/>
		<polygon fill="#010101" points="62.883,-11.54 58.465,-15.824 58.019,-15.39 62.437,-11.106 		"/>
		<polygon fill="#010101" points="58.466,-11.106 62.884,-15.391 62.436,-15.823 58.019,-11.54 		"/>
		<polygon fill="#010101" points="68.649,-11.54 64.231,-15.824 63.785,-15.39 68.203,-11.106 		"/>
		<polygon fill="#010101" points="64.232,-11.106 68.65,-15.391 68.202,-15.823 63.785,-11.54 		"/>
		<polygon fill="#010101" points="74.416,-11.54 69.998,-15.824 69.551,-15.39 73.969,-11.106 		"/>
		<polygon fill="#010101" points="69.998,-11.106 74.416,-15.391 73.968,-15.823 69.551,-11.54 		"/>
		<polygon fill="#010101" points="80.182,-11.54 75.764,-15.824 75.317,-15.39 79.735,-11.106 		"/>
		<polygon fill="#010101" points="75.764,-11.106 80.182,-15.391 79.734,-15.823 75.317,-11.54 		"/>
		<polygon fill="#010101" points="5.222,-16.915 0.804,-21.198 0.357,-20.765 4.775,-16.48 		"/>
		<polygon fill="#010101" points="0.804,-16.48 5.222,-20.765 4.774,-21.198 0.357,-16.915 		"/>
		<polygon fill="#010101" points="10.988,-16.915 6.57,-21.198 6.123,-20.765 10.541,-16.48 		"/>
		<polygon fill="#010101" points="6.57,-16.48 10.988,-20.765 10.54,-21.198 6.123,-16.915 		"/>
		<polygon fill="#010101" points="16.754,-16.915 12.336,-21.198 11.889,-20.765 16.307,-16.48 		"/>
		<polygon fill="#010101" points="12.336,-16.48 16.754,-20.765 16.306,-21.198 11.889,-16.915 		"/>
		<polygon fill="#010101" points="22.52,-16.915 18.102,-21.198 17.655,-20.765 22.073,-16.48 		"/>
		<polygon fill="#010101" points="18.103,-16.48 22.521,-20.765 22.072,-21.198 17.655,-16.915 		"/>
		<polygon fill="#010101" points="28.287,-16.915 23.868,-21.198 23.421,-20.765 27.839,-16.48 		"/>
		<polygon fill="#010101" points="23.869,-16.48 28.287,-20.765 27.839,-21.198 23.422,-16.915 		"/>
		<polygon fill="#010101" points="34.053,-16.915 29.635,-21.198 29.188,-20.765 33.605,-16.48 		"/>
		<polygon fill="#010101" points="29.635,-16.48 34.053,-20.765 33.605,-21.198 29.188,-16.915 		"/>
		<polygon fill="#010101" points="39.819,-16.915 35.401,-21.198 34.954,-20.765 39.372,-16.48 		"/>
		<polygon fill="#010101" points="35.401,-16.48 39.819,-20.765 39.371,-21.198 34.954,-16.915 		"/>
		<polygon fill="#010101" points="45.585,-16.915 41.167,-21.198 40.72,-20.765 45.138,-16.48 		"/>
		<polygon fill="#010101" points="41.167,-16.48 45.585,-20.765 45.137,-21.198 40.72,-16.915 		"/>
		<polygon fill="#010101" points="51.351,-16.915 46.933,-21.198 46.486,-20.765 50.904,-16.48 		"/>
		<polygon fill="#010101" points="46.933,-16.48 51.351,-20.765 50.903,-21.198 46.486,-16.915 		"/>
		<polygon fill="#010101" points="57.117,-16.915 52.699,-21.198 52.252,-20.765 56.67,-16.48 		"/>
		<polygon fill="#010101" points="52.7,-16.48 57.118,-20.765 56.669,-21.198 52.252,-16.915 		"/>
		<polygon fill="#010101" points="62.883,-16.915 58.465,-21.198 58.019,-20.765 62.437,-16.48 		"/>
		<polygon fill="#010101" points="58.466,-16.48 62.884,-20.765 62.436,-21.198 58.019,-16.915 		"/>
		<polygon fill="#010101" points="68.649,-16.915 64.231,-21.198 63.785,-20.765 68.203,-16.48 		"/>
		<polygon fill="#010101" points="64.232,-16.48 68.65,-20.765 68.202,-21.198 63.785,-16.915 		"/>
		<polygon fill="#010101" points="74.416,-16.915 69.998,-21.198 69.551,-20.765 73.969,-16.48 		"/>
		<polygon fill="#010101" points="69.998,-16.48 74.416,-20.765 73.968,-21.198 69.551,-16.915 		"/>
		<polygon fill="#010101" points="80.182,-16.915 75.764,-21.198 75.317,-20.765 79.735,-16.48 		"/>
		<polygon fill="#010101" points="75.764,-16.48 80.182,-20.765 79.734,-21.198 75.317,-16.915 		"/>
		<polygon fill="#010101" points="5.222,-22.289 0.804,-26.573 0.357,-26.14 4.775,-21.855 		"/>
		<polygon fill="#010101" points="0.804,-21.855 5.222,-26.14 4.774,-26.572 0.357,-22.289 		"/>
		<polygon fill="#010101" points="10.988,-22.289 6.57,-26.573 6.123,-26.14 10.541,-21.855 		"/>
		<polygon fill="#010101" points="6.57,-21.855 10.988,-26.14 10.54,-26.572 6.123,-22.289 		"/>
		<polygon fill="#010101" points="16.754,-22.289 12.336,-26.573 11.889,-26.14 16.307,-21.855 		"/>
		<polygon fill="#010101" points="12.336,-21.855 16.754,-26.14 16.306,-26.572 11.889,-22.289 		"/>
		<polygon fill="#010101" points="22.52,-22.289 18.102,-26.573 17.655,-26.14 22.073,-21.855 		"/>
		<polygon fill="#010101" points="18.103,-21.855 22.521,-26.14 22.072,-26.572 17.655,-22.289 		"/>
		<polygon fill="#010101" points="28.287,-22.289 23.868,-26.573 23.421,-26.14 27.839,-21.855 		"/>
		<polygon fill="#010101" points="23.869,-21.855 28.287,-26.14 27.839,-26.572 23.422,-22.289 		"/>
		<polygon fill="#010101" points="34.053,-22.289 29.635,-26.573 29.188,-26.14 33.605,-21.855 		"/>
		<polygon fill="#010101" points="29.635,-21.855 34.053,-26.14 33.605,-26.572 29.188,-22.289 		"/>
		<polygon fill="#010101" points="39.819,-22.289 35.401,-26.573 34.954,-26.14 39.372,-21.855 		"/>
		<polygon fill="#010101" points="35.401,-21.855 39.819,-26.14 39.371,-26.572 34.954,-22.289 		"/>
		<polygon fill="#010101" points="45.585,-22.289 41.167,-26.573 40.72,-26.14 45.138,-21.855 		"/>
		<polygon fill="#010101" points="41.167,-21.855 45.585,-26.14 45.137,-26.572 40.72,-22.289 		"/>
		<polygon fill="#010101" points="51.351,-22.289 46.933,-26.573 46.486,-26.14 50.904,-21.855 		"/>
		<polygon fill="#010101" points="46.933,-21.855 51.351,-26.14 50.903,-26.572 46.486,-22.289 		"/>
		<polygon fill="#010101" points="57.117,-22.289 52.699,-26.573 52.252,-26.14 56.67,-21.855 		"/>
		<polygon fill="#010101" points="52.7,-21.855 57.118,-26.14 56.669,-26.572 52.252,-22.289 		"/>
		<polygon fill="#010101" points="62.883,-22.289 58.465,-26.573 58.019,-26.14 62.437,-21.855 		"/>
		<polygon fill="#010101" points="58.466,-21.855 62.884,-26.14 62.436,-26.572 58.019,-22.289 		"/>
		<polygon fill="#010101" points="68.649,-22.289 64.231,-26.573 63.785,-26.14 68.203,-21.855 		"/>
		<polygon fill="#010101" points="64.232,-21.855 68.65,-26.14 68.202,-26.572 63.785,-22.289 		"/>
		<polygon fill="#010101" points="74.416,-22.289 69.998,-26.573 69.551,-26.14 73.969,-21.855 		"/>
		<polygon fill="#010101" points="69.998,-21.855 74.416,-26.14 73.968,-26.572 69.551,-22.289 		"/>
		<polygon fill="#010101" points="80.182,-22.289 75.764,-26.573 75.317,-26.14 79.735,-21.855 		"/>
		<polygon fill="#010101" points="75.764,-21.855 80.182,-26.14 79.734,-26.572 75.317,-22.289 		"/>
		<polygon fill="#010101" points="5.222,-27.664 0.804,-31.948 0.357,-31.514 4.775,-27.229 		"/>
		<polygon fill="#010101" points="0.804,-27.23 5.222,-31.514 4.774,-31.947 0.357,-27.664 		"/>
		<polygon fill="#010101" points="10.988,-27.664 6.57,-31.948 6.123,-31.514 10.541,-27.229 		"/>
		<polygon fill="#010101" points="6.57,-27.23 10.988,-31.514 10.54,-31.947 6.123,-27.664 		"/>
		<polygon fill="#010101" points="16.754,-27.664 12.336,-31.948 11.889,-31.514 16.307,-27.229 		"/>
		<polygon fill="#010101" points="12.336,-27.23 16.754,-31.514 16.306,-31.947 11.889,-27.664 		"/>
		<polygon fill="#010101" points="22.52,-27.664 18.102,-31.948 17.655,-31.514 22.073,-27.229 		"/>
		<polygon fill="#010101" points="18.103,-27.23 22.521,-31.514 22.072,-31.947 17.655,-27.664 		"/>
		<polygon fill="#010101" points="28.287,-27.664 23.868,-31.948 23.421,-31.514 27.839,-27.229 		"/>
		<polygon fill="#010101" points="23.869,-27.23 28.287,-31.514 27.839,-31.947 23.422,-27.664 		"/>
		<polygon fill="#010101" points="34.053,-27.664 29.635,-31.948 29.188,-31.514 33.605,-27.229 		"/>
		<polygon fill="#010101" points="29.635,-27.23 34.053,-31.514 33.605,-31.947 29.188,-27.664 		"/>
		<polygon fill="#010101" points="39.819,-27.664 35.401,-31.948 34.954,-31.514 39.372,-27.229 		"/>
		<polygon fill="#010101" points="35.401,-27.23 39.819,-31.514 39.371,-31.947 34.954,-27.664 		"/>
		<polygon fill="#010101" points="45.585,-27.664 41.167,-31.948 40.72,-31.514 45.138,-27.229 		"/>
		<polygon fill="#010101" points="41.167,-27.23 45.585,-31.514 45.137,-31.947 40.72,-27.664 		"/>
		<polygon fill="#010101" points="51.351,-27.664 46.933,-31.948 46.486,-31.514 50.904,-27.229 		"/>
		<polygon fill="#010101" points="46.933,-27.23 51.351,-31.514 50.903,-31.947 46.486,-27.664 		"/>
		<polygon fill="#010101" points="57.117,-27.664 52.699,-31.948 52.252,-31.514 56.67,-27.229 		"/>
		<polygon fill="#010101" points="52.7,-27.23 57.118,-31.514 56.669,-31.947 52.252,-27.664 		"/>
		<polygon fill="#010101" points="62.883,-27.664 58.465,-31.948 58.019,-31.514 62.437,-27.229 		"/>
		<polygon fill="#010101" points="58.466,-27.23 62.884,-31.514 62.436,-31.947 58.019,-27.664 		"/>
		<polygon fill="#010101" points="68.649,-27.664 64.231,-31.948 63.785,-31.514 68.203,-27.229 		"/>
		<polygon fill="#010101" points="64.232,-27.23 68.65,-31.514 68.202,-31.947 63.785,-27.664 		"/>
		<polygon fill="#010101" points="74.416,-27.664 69.998,-31.948 69.551,-31.514 73.969,-27.229 		"/>
		<polygon fill="#010101" points="69.998,-27.23 74.416,-31.514 73.968,-31.947 69.551,-27.664 		"/>
		<polygon fill="#010101" points="80.182,-27.664 75.764,-31.948 75.317,-31.514 79.735,-27.229 		"/>
		<polygon fill="#010101" points="75.764,-27.23 80.182,-31.514 79.734,-31.947 75.317,-27.664 		"/>
		<polygon fill="#010101" points="5.222,-33.038 0.804,-37.322 0.357,-36.889 4.775,-32.604 		"/>
		<polygon fill="#010101" points="0.804,-32.604 5.222,-36.889 4.774,-37.321 0.357,-33.038 		"/>
		<polygon fill="#010101" points="10.988,-33.038 6.57,-37.322 6.123,-36.889 10.541,-32.604 		"/>
		<polygon fill="#010101" points="6.57,-32.604 10.988,-36.889 10.54,-37.321 6.123,-33.038 		"/>
		<polygon fill="#010101" points="16.754,-33.038 12.336,-37.322 11.889,-36.889 16.307,-32.604 		"/>
		<polygon fill="#010101" points="12.336,-32.604 16.754,-36.889 16.306,-37.321 11.889,-33.038 		"/>
		<polygon fill="#010101" points="22.52,-33.038 18.102,-37.322 17.655,-36.889 22.073,-32.604 		"/>
		<polygon fill="#010101" points="18.103,-32.604 22.521,-36.889 22.072,-37.321 17.655,-33.038 		"/>
		<polygon fill="#010101" points="28.287,-33.038 23.868,-37.322 23.421,-36.889 27.839,-32.604 		"/>
		<polygon fill="#010101" points="23.869,-32.604 28.287,-36.889 27.839,-37.321 23.422,-33.038 		"/>
		<polygon fill="#010101" points="34.053,-33.038 29.635,-37.322 29.188,-36.889 33.605,-32.604 		"/>
		<polygon fill="#010101" points="29.635,-32.604 34.053,-36.889 33.605,-37.321 29.188,-33.038 		"/>
		<polygon fill="#010101" points="39.819,-33.038 35.401,-37.322 34.954,-36.889 39.372,-32.604 		"/>
		<polygon fill="#010101" points="35.401,-32.604 39.819,-36.889 39.371,-37.321 34.954,-33.038 		"/>
		<polygon fill="#010101" points="45.585,-33.038 41.167,-37.322 40.72,-36.889 45.138,-32.604 		"/>
		<polygon fill="#010101" points="41.167,-32.604 45.585,-36.889 45.137,-37.321 40.72,-33.038 		"/>
		<polygon fill="#010101" points="51.351,-33.038 46.933,-37.322 46.486,-36.889 50.904,-32.604 		"/>
		<polygon fill="#010101" points="46.933,-32.604 51.351,-36.889 50.903,-37.321 46.486,-33.038 		"/>
		<polygon fill="#010101" points="57.117,-33.038 52.699,-37.322 52.252,-36.889 56.67,-32.604 		"/>
		<polygon fill="#010101" points="52.7,-32.604 57.118,-36.889 56.669,-37.321 52.252,-33.038 		"/>
		<polygon fill="#010101" points="62.883,-33.038 58.465,-37.322 58.019,-36.889 62.437,-32.604 		"/>
		<polygon fill="#010101" points="58.466,-32.604 62.884,-36.889 62.436,-37.321 58.019,-33.038 		"/>
		<polygon fill="#010101" points="68.649,-33.038 64.231,-37.322 63.785,-36.889 68.203,-32.604 		"/>
		<polygon fill="#010101" points="64.232,-32.604 68.65,-36.889 68.202,-37.321 63.785,-33.038 		"/>
		<polygon fill="#010101" points="74.416,-33.038 69.998,-37.322 69.551,-36.889 73.969,-32.604 		"/>
		<polygon fill="#010101" points="69.998,-32.604 74.416,-36.889 73.968,-37.321 69.551,-33.038 		"/>
		<polygon fill="#010101" points="80.182,-33.038 75.764,-37.322 75.317,-36.889 79.735,-32.604 		"/>
		<polygon fill="#010101" points="75.764,-32.604 80.182,-36.889 79.734,-37.321 75.317,-33.038 		"/>
		<polygon fill="#010101" points="5.222,-38.413 0.804,-42.697 0.357,-42.263 4.775,-37.979 		"/>
		<polygon fill="#010101" points="0.804,-37.979 5.222,-42.263 4.774,-42.696 0.357,-38.413 		"/>
		<polygon fill="#010101" points="10.988,-38.413 6.57,-42.697 6.123,-42.263 10.541,-37.979 		"/>
		<polygon fill="#010101" points="6.57,-37.979 10.988,-42.263 10.54,-42.696 6.123,-38.413 		"/>
		<polygon fill="#010101" points="16.754,-38.413 12.336,-42.697 11.889,-42.263 16.307,-37.979 		"/>
		<polygon fill="#010101" points="12.336,-37.979 16.754,-42.263 16.306,-42.696 11.889,-38.413 		"/>
		<polygon fill="#010101" points="22.52,-38.413 18.102,-42.697 17.655,-42.263 22.073,-37.979 		"/>
		<polygon fill="#010101" points="18.103,-37.979 22.521,-42.263 22.072,-42.696 17.655,-38.413 		"/>
		<polygon fill="#010101" points="28.287,-38.413 23.868,-42.697 23.421,-42.263 27.839,-37.979 		"/>
		<polygon fill="#010101" points="23.869,-37.979 28.287,-42.263 27.839,-42.696 23.422,-38.413 		"/>
		<polygon fill="#010101" points="34.053,-38.413 29.635,-42.697 29.188,-42.263 33.605,-37.979 		"/>
		<polygon fill="#010101" points="29.635,-37.979 34.053,-42.263 33.605,-42.696 29.188,-38.413 		"/>
		<polygon fill="#010101" points="39.819,-38.413 35.401,-42.697 34.954,-42.263 39.372,-37.979 		"/>
		<polygon fill="#010101" points="35.401,-37.979 39.819,-42.263 39.371,-42.696 34.954,-38.413 		"/>
		<polygon fill="#010101" points="45.585,-38.413 41.167,-42.697 40.72,-42.263 45.138,-37.979 		"/>
		<polygon fill="#010101" points="41.167,-37.979 45.585,-42.263 45.137,-42.696 40.72,-38.413 		"/>
		<polygon fill="#010101" points="51.351,-38.413 46.933,-42.697 46.486,-42.263 50.904,-37.979 		"/>
		<polygon fill="#010101" points="46.933,-37.979 51.351,-42.263 50.903,-42.696 46.486,-38.413 		"/>
		<polygon fill="#010101" points="57.117,-38.413 52.699,-42.697 52.252,-42.263 56.67,-37.979 		"/>
		<polygon fill="#010101" points="52.7,-37.979 57.118,-42.263 56.669,-42.696 52.252,-38.413 		"/>
		<polygon fill="#010101" points="62.883,-38.413 58.465,-42.697 58.019,-42.263 62.437,-37.979 		"/>
		<polygon fill="#010101" points="58.466,-37.979 62.884,-42.263 62.436,-42.696 58.019,-38.413 		"/>
		<polygon fill="#010101" points="68.649,-38.413 64.231,-42.697 63.785,-42.263 68.203,-37.979 		"/>
		<polygon fill="#010101" points="64.232,-37.979 68.65,-42.263 68.202,-42.696 63.785,-38.413 		"/>
		<polygon fill="#010101" points="74.416,-38.413 69.998,-42.697 69.551,-42.263 73.969,-37.979 		"/>
		<polygon fill="#010101" points="69.998,-37.979 74.416,-42.263 73.968,-42.696 69.551,-38.413 		"/>
		<polygon fill="#010101" points="80.182,-38.413 75.764,-42.697 75.317,-42.263 79.735,-37.979 		"/>
		<polygon fill="#010101" points="75.764,-37.979 80.182,-42.263 79.734,-42.696 75.317,-38.413 		"/>
		<polygon fill="#010101" points="5.222,-43.787 0.804,-48.071 0.357,-47.638 4.775,-43.354 		"/>
		<polygon fill="#010101" points="0.804,-43.354 5.222,-47.638 4.774,-48.07 0.357,-43.788 		"/>
		<polygon fill="#010101" points="10.988,-43.787 6.57,-48.071 6.123,-47.638 10.541,-43.354 		"/>
		<polygon fill="#010101" points="6.57,-43.354 10.988,-47.638 10.54,-48.07 6.123,-43.788 		"/>
		<polygon fill="#010101" points="16.754,-43.787 12.336,-48.071 11.889,-47.638 16.307,-43.354 		"/>
		<polygon fill="#010101" points="12.336,-43.354 16.754,-47.638 16.306,-48.07 11.889,-43.788 		"/>
		<polygon fill="#010101" points="22.52,-43.787 18.102,-48.071 17.655,-47.638 22.073,-43.354 		"/>
		<polygon fill="#010101" points="18.103,-43.354 22.521,-47.638 22.072,-48.07 17.655,-43.788 		"/>
		<polygon fill="#010101" points="28.287,-43.787 23.868,-48.071 23.421,-47.638 27.839,-43.354 		"/>
		<polygon fill="#010101" points="23.869,-43.354 28.287,-47.638 27.839,-48.07 23.422,-43.788 		"/>
		<polygon fill="#010101" points="34.053,-43.787 29.635,-48.071 29.188,-47.638 33.605,-43.354 		"/>
		<polygon fill="#010101" points="29.635,-43.354 34.053,-47.638 33.605,-48.07 29.188,-43.788 		"/>
		<polygon fill="#010101" points="39.819,-43.787 35.401,-48.071 34.954,-47.638 39.372,-43.354 		"/>
		<polygon fill="#010101" points="35.401,-43.354 39.819,-47.638 39.371,-48.07 34.954,-43.788 		"/>
		<polygon fill="#010101" points="45.585,-43.787 41.167,-48.071 40.72,-47.638 45.138,-43.354 		"/>
		<polygon fill="#010101" points="41.167,-43.354 45.585,-47.638 45.137,-48.07 40.72,-43.788 		"/>
		<polygon fill="#010101" points="51.351,-43.787 46.933,-48.071 46.486,-47.638 50.904,-43.354 		"/>
		<polygon fill="#010101" points="46.933,-43.354 51.351,-47.638 50.903,-48.07 46.486,-43.788 		"/>
		<polygon fill="#010101" points="57.117,-43.787 52.699,-48.071 52.252,-47.638 56.67,-43.354 		"/>
		<polygon fill="#010101" points="52.7,-43.354 57.118,-47.638 56.669,-48.07 52.252,-43.788 		"/>
		<polygon fill="#010101" points="62.883,-43.787 58.465,-48.071 58.019,-47.638 62.437,-43.354 		"/>
		<polygon fill="#010101" points="58.466,-43.354 62.884,-47.638 62.436,-48.07 58.019,-43.788 		"/>
		<polygon fill="#010101" points="68.649,-43.787 64.231,-48.071 63.785,-47.638 68.203,-43.354 		"/>
		<polygon fill="#010101" points="64.232,-43.354 68.65,-47.638 68.202,-48.07 63.785,-43.788 		"/>
		<polygon fill="#010101" points="74.416,-43.787 69.998,-48.071 69.551,-47.638 73.969,-43.354 		"/>
		<polygon fill="#010101" points="69.998,-43.354 74.416,-47.638 73.968,-48.07 69.551,-43.788 		"/>
		<polygon fill="#010101" points="80.182,-43.787 75.764,-48.071 75.317,-47.638 79.735,-43.354 		"/>
		<polygon fill="#010101" points="75.764,-43.354 80.182,-47.638 79.734,-48.07 75.317,-43.788 		"/>
		<polygon fill="#010101" points="5.222,-49.162 0.804,-53.446 0.357,-53.012 4.775,-48.729 		"/>
		<polygon fill="#010101" points="0.804,-48.729 5.222,-53.013 4.774,-53.445 0.357,-49.162 		"/>
		<polygon fill="#010101" points="10.988,-49.162 6.57,-53.446 6.123,-53.012 10.541,-48.729 		"/>
		<polygon fill="#010101" points="6.57,-48.729 10.988,-53.013 10.54,-53.445 6.123,-49.162 		"/>
		<polygon fill="#010101" points="16.754,-49.162 12.336,-53.446 11.889,-53.012 16.307,-48.729 		"/>
		<polygon fill="#010101" points="12.336,-48.729 16.754,-53.013 16.306,-53.445 11.889,-49.162 		"/>
		<polygon fill="#010101" points="22.52,-49.162 18.102,-53.446 17.655,-53.012 22.073,-48.729 		"/>
		<polygon fill="#010101" points="18.103,-48.729 22.521,-53.013 22.072,-53.445 17.655,-49.162 		"/>
		<polygon fill="#010101" points="28.287,-49.162 23.868,-53.446 23.421,-53.012 27.839,-48.729 		"/>
		<polygon fill="#010101" points="23.869,-48.729 28.287,-53.013 27.839,-53.445 23.422,-49.162 		"/>
		<polygon fill="#010101" points="34.053,-49.162 29.635,-53.446 29.188,-53.012 33.605,-48.729 		"/>
		<polygon fill="#010101" points="29.635,-48.729 34.053,-53.013 33.605,-53.445 29.188,-49.162 		"/>
		<polygon fill="#010101" points="39.819,-49.162 35.401,-53.446 34.954,-53.012 39.372,-48.729 		"/>
		<polygon fill="#010101" points="35.401,-48.729 39.819,-53.013 39.371,-53.445 34.954,-49.162 		"/>
		<polygon fill="#010101" points="45.585,-49.162 41.167,-53.446 40.72,-53.012 45.138,-48.729 		"/>
		<polygon fill="#010101" points="41.167,-48.729 45.585,-53.013 45.137,-53.445 40.72,-49.162 		"/>
		<polygon fill="#010101" points="51.351,-49.162 46.933,-53.446 46.486,-53.012 50.904,-48.729 		"/>
		<polygon fill="#010101" points="46.933,-48.729 51.351,-53.013 50.903,-53.445 46.486,-49.162 		"/>
		<polygon fill="#010101" points="57.117,-49.162 52.699,-53.446 52.252,-53.012 56.67,-48.729 		"/>
		<polygon fill="#010101" points="52.7,-48.729 57.118,-53.013 56.669,-53.445 52.252,-49.162 		"/>
		<polygon fill="#010101" points="62.883,-49.162 58.465,-53.446 58.019,-53.012 62.437,-48.729 		"/>
		<polygon fill="#010101" points="58.466,-48.729 62.884,-53.013 62.436,-53.445 58.019,-49.162 		"/>
		<polygon fill="#010101" points="68.649,-49.162 64.231,-53.446 63.785,-53.012 68.203,-48.729 		"/>
		<polygon fill="#010101" points="64.232,-48.729 68.65,-53.013 68.202,-53.445 63.785,-49.162 		"/>
		<polygon fill="#010101" points="74.416,-49.162 69.998,-53.446 69.551,-53.012 73.969,-48.729 		"/>
		<polygon fill="#010101" points="69.998,-48.729 74.416,-53.013 73.968,-53.445 69.551,-49.162 		"/>
		<polygon fill="#010101" points="80.182,-49.162 75.764,-53.446 75.317,-53.012 79.735,-48.729 		"/>
		<polygon fill="#010101" points="75.764,-48.729 80.182,-53.013 79.734,-53.445 75.317,-49.162 		"/>
		<polygon fill="#010101" points="5.222,-54.536 0.804,-58.82 0.357,-58.387 4.775,-54.103 		"/>
		<polygon fill="#010101" points="0.804,-54.103 5.222,-58.387 4.774,-58.819 0.357,-54.537 		"/>
		<polygon fill="#010101" points="10.988,-54.536 6.57,-58.82 6.123,-58.387 10.541,-54.103 		"/>
		<polygon fill="#010101" points="6.57,-54.103 10.988,-58.387 10.54,-58.819 6.123,-54.537 		"/>
		<polygon fill="#010101" points="16.754,-54.536 12.336,-58.82 11.889,-58.387 16.307,-54.103 		"/>
		<polygon fill="#010101" points="12.336,-54.103 16.754,-58.387 16.306,-58.819 11.889,-54.537 		"/>
		<polygon fill="#010101" points="22.52,-54.536 18.102,-58.82 17.655,-58.387 22.073,-54.103 		"/>
		<polygon fill="#010101" points="18.103,-54.103 22.521,-58.387 22.072,-58.819 17.655,-54.537 		"/>
		<polygon fill="#010101" points="28.287,-54.536 23.868,-58.82 23.421,-58.387 27.839,-54.103 		"/>
		<polygon fill="#010101" points="23.869,-54.103 28.287,-58.387 27.839,-58.819 23.422,-54.537 		"/>
		<polygon fill="#010101" points="34.053,-54.536 29.635,-58.82 29.188,-58.387 33.605,-54.103 		"/>
		<polygon fill="#010101" points="29.635,-54.103 34.053,-58.387 33.605,-58.819 29.188,-54.537 		"/>
		<polygon fill="#010101" points="39.819,-54.536 35.401,-58.82 34.954,-58.387 39.372,-54.103 		"/>
		<polygon fill="#010101" points="35.401,-54.103 39.819,-58.387 39.371,-58.819 34.954,-54.537 		"/>
		<polygon fill="#010101" points="45.585,-54.536 41.167,-58.82 40.72,-58.387 45.138,-54.103 		"/>
		<polygon fill="#010101" points="41.167,-54.103 45.585,-58.387 45.137,-58.819 40.72,-54.537 		"/>
		<polygon fill="#010101" points="51.351,-54.536 46.933,-58.82 46.486,-58.387 50.904,-54.103 		"/>
		<polygon fill="#010101" points="46.933,-54.103 51.351,-58.387 50.903,-58.819 46.486,-54.537 		"/>
		<polygon fill="#010101" points="57.117,-54.536 52.699,-58.82 52.252,-58.387 56.67,-54.103 		"/>
		<polygon fill="#010101" points="52.7,-54.103 57.118,-58.387 56.669,-58.819 52.252,-54.537 		"/>
		<polygon fill="#010101" points="62.883,-54.536 58.465,-58.82 58.019,-58.387 62.437,-54.103 		"/>
		<polygon fill="#010101" points="58.466,-54.103 62.884,-58.387 62.436,-58.819 58.019,-54.537 		"/>
		<polygon fill="#010101" points="68.649,-54.536 64.231,-58.82 63.785,-58.387 68.203,-54.103 		"/>
		<polygon fill="#010101" points="64.232,-54.103 68.65,-58.387 68.202,-58.819 63.785,-54.537 		"/>
		<polygon fill="#010101" points="74.416,-54.536 69.998,-58.82 69.551,-58.387 73.969,-54.103 		"/>
		<polygon fill="#010101" points="69.998,-54.103 74.416,-58.387 73.968,-58.819 69.551,-54.537 		"/>
		<polygon fill="#010101" points="80.182,-54.536 75.764,-58.82 75.317,-58.387 79.735,-54.103 		"/>
		<polygon fill="#010101" points="75.764,-54.103 80.182,-58.387 79.734,-58.819 75.317,-54.537 		"/>
		<polygon fill="#010101" points="5.222,-59.911 0.804,-64.195 0.357,-63.761 4.775,-59.478 		"/>
		<polygon fill="#010101" points="0.804,-59.478 5.222,-63.762 4.774,-64.194 0.357,-59.911 		"/>
		<polygon fill="#010101" points="10.988,-59.911 6.57,-64.195 6.123,-63.761 10.541,-59.478 		"/>
		<polygon fill="#010101" points="6.57,-59.478 10.988,-63.762 10.54,-64.194 6.123,-59.911 		"/>
		<polygon fill="#010101" points="16.754,-59.911 12.336,-64.195 11.889,-63.761 16.307,-59.478 		"/>
		<polygon fill="#010101" points="12.336,-59.478 16.754,-63.762 16.306,-64.194 11.889,-59.911 		"/>
		<polygon fill="#010101" points="22.52,-59.911 18.102,-64.195 17.655,-63.761 22.073,-59.478 		"/>
		<polygon fill="#010101" points="18.103,-59.478 22.521,-63.762 22.072,-64.194 17.655,-59.911 		"/>
		<polygon fill="#010101" points="28.287,-59.911 23.868,-64.195 23.421,-63.761 27.839,-59.478 		"/>
		<polygon fill="#010101" points="23.869,-59.478 28.287,-63.762 27.839,-64.194 23.422,-59.911 		"/>
		<polygon fill="#010101" points="34.053,-59.911 29.635,-64.195 29.188,-63.761 33.605,-59.478 		"/>
		<polygon fill="#010101" points="29.635,-59.478 34.053,-63.762 33.605,-64.194 29.188,-59.911 		"/>
		<polygon fill="#010101" points="39.819,-59.911 35.401,-64.195 34.954,-63.761 39.372,-59.478 		"/>
		<polygon fill="#010101" points="35.401,-59.478 39.819,-63.762 39.371,-64.194 34.954,-59.911 		"/>
		<polygon fill="#010101" points="45.585,-59.911 41.167,-64.195 40.72,-63.761 45.138,-59.478 		"/>
		<polygon fill="#010101" points="41.167,-59.478 45.585,-63.762 45.137,-64.194 40.72,-59.911 		"/>
		<polygon fill="#010101" points="51.351,-59.911 46.933,-64.195 46.486,-63.761 50.904,-59.478 		"/>
		<polygon fill="#010101" points="46.933,-59.478 51.351,-63.762 50.903,-64.194 46.486,-59.911 		"/>
		<polygon fill="#010101" points="57.117,-59.911 52.699,-64.195 52.252,-63.761 56.67,-59.478 		"/>
		<polygon fill="#010101" points="52.7,-59.478 57.118,-63.762 56.669,-64.194 52.252,-59.911 		"/>
		<polygon fill="#010101" points="62.883,-59.911 58.465,-64.195 58.019,-63.761 62.437,-59.478 		"/>
		<polygon fill="#010101" points="58.466,-59.478 62.884,-63.762 62.436,-64.194 58.019,-59.911 		"/>
		<polygon fill="#010101" points="68.649,-59.911 64.231,-64.195 63.785,-63.761 68.203,-59.478 		"/>
		<polygon fill="#010101" points="64.232,-59.478 68.65,-63.762 68.202,-64.194 63.785,-59.911 		"/>
		<polygon fill="#010101" points="74.416,-59.911 69.998,-64.195 69.551,-63.761 73.969,-59.478 		"/>
		<polygon fill="#010101" points="69.998,-59.478 74.416,-63.762 73.968,-64.194 69.551,-59.911 		"/>
		<polygon fill="#010101" points="80.182,-59.911 75.764,-64.195 75.317,-63.761 79.735,-59.478 		"/>
		<polygon fill="#010101" points="75.764,-59.478 80.182,-63.762 79.734,-64.194 75.317,-59.911 		"/>
		<polygon fill="#010101" points="5.222,-65.286 0.804,-69.569 0.357,-69.136 4.775,-64.852 		"/>
		<polygon fill="#010101" points="0.804,-64.852 5.222,-69.136 4.774,-69.569 0.357,-65.286 		"/>
		<polygon fill="#010101" points="10.988,-65.286 6.57,-69.569 6.123,-69.136 10.541,-64.852 		"/>
		<polygon fill="#010101" points="6.57,-64.852 10.988,-69.136 10.54,-69.569 6.123,-65.286 		"/>
		<polygon fill="#010101" points="16.754,-65.286 12.336,-69.569 11.889,-69.136 16.307,-64.852 		"/>
		<polygon fill="#010101" points="12.336,-64.852 16.754,-69.136 16.306,-69.569 11.889,-65.286 		"/>
		<polygon fill="#010101" points="22.52,-65.286 18.102,-69.569 17.655,-69.136 22.073,-64.852 		"/>
		<polygon fill="#010101" points="18.103,-64.852 22.521,-69.136 22.072,-69.569 17.655,-65.286 		"/>
		<polygon fill="#010101" points="28.287,-65.286 23.868,-69.569 23.421,-69.136 27.839,-64.852 		"/>
		<polygon fill="#010101" points="23.869,-64.852 28.287,-69.136 27.839,-69.569 23.422,-65.286 		"/>
		<polygon fill="#010101" points="34.053,-65.286 29.635,-69.569 29.188,-69.136 33.605,-64.852 		"/>
		<polygon fill="#010101" points="29.635,-64.852 34.053,-69.136 33.605,-69.569 29.188,-65.286 		"/>
		<polygon fill="#010101" points="39.819,-65.286 35.401,-69.569 34.954,-69.136 39.372,-64.852 		"/>
		<polygon fill="#010101" points="35.401,-64.852 39.819,-69.136 39.371,-69.569 34.954,-65.286 		"/>
		<polygon fill="#010101" points="45.585,-65.286 41.167,-69.569 40.72,-69.136 45.138,-64.852 		"/>
		<polygon fill="#010101" points="41.167,-64.852 45.585,-69.136 45.137,-69.569 40.72,-65.286 		"/>
		<polygon fill="#010101" points="51.351,-65.286 46.933,-69.569 46.486,-69.136 50.904,-64.852 		"/>
		<polygon fill="#010101" points="46.933,-64.852 51.351,-69.136 50.903,-69.569 46.486,-65.286 		"/>
		<polygon fill="#010101" points="57.117,-65.286 52.699,-69.569 52.252,-69.136 56.67,-64.852 		"/>
		<polygon fill="#010101" points="52.7,-64.852 57.118,-69.136 56.669,-69.569 52.252,-65.286 		"/>
		<polygon fill="#010101" points="62.883,-65.286 58.465,-69.569 58.019,-69.136 62.437,-64.852 		"/>
		<polygon fill="#010101" points="58.466,-64.852 62.884,-69.136 62.436,-69.569 58.019,-65.286 		"/>
		<polygon fill="#010101" points="68.649,-65.286 64.231,-69.569 63.785,-69.136 68.203,-64.852 		"/>
		<polygon fill="#010101" points="64.232,-64.852 68.65,-69.136 68.202,-69.569 63.785,-65.286 		"/>
		<polygon fill="#010101" points="74.416,-65.286 69.998,-69.569 69.551,-69.136 73.969,-64.852 		"/>
		<polygon fill="#010101" points="69.998,-64.852 74.416,-69.136 73.968,-69.569 69.551,-65.286 		"/>
		<polygon fill="#010101" points="80.182,-65.286 75.764,-69.569 75.317,-69.136 79.735,-64.852 		"/>
		<polygon fill="#010101" points="75.764,-64.852 80.182,-69.136 79.734,-69.569 75.317,-65.286 		"/>
		<polygon fill="#010101" points="5.222,-70.66 0.804,-74.944 0.357,-74.511 4.775,-70.227 		"/>
		<polygon fill="#010101" points="0.804,-70.227 5.222,-74.511 4.774,-74.943 0.357,-70.66 		"/>
		<polygon fill="#010101" points="10.988,-70.66 6.57,-74.944 6.123,-74.511 10.541,-70.227 		"/>
		<polygon fill="#010101" points="6.57,-70.227 10.988,-74.511 10.54,-74.943 6.123,-70.66 		"/>
		<polygon fill="#010101" points="16.754,-70.66 12.336,-74.944 11.889,-74.511 16.307,-70.227 		"/>
		<polygon fill="#010101" points="12.336,-70.227 16.754,-74.511 16.306,-74.943 11.889,-70.66 		"/>
		<polygon fill="#010101" points="22.52,-70.66 18.102,-74.944 17.655,-74.511 22.073,-70.227 		"/>
		<polygon fill="#010101" points="18.103,-70.227 22.521,-74.511 22.072,-74.943 17.655,-70.66 		"/>
		<polygon fill="#010101" points="28.287,-70.66 23.868,-74.944 23.421,-74.511 27.839,-70.227 		"/>
		<polygon fill="#010101" points="23.869,-70.227 28.287,-74.511 27.839,-74.943 23.422,-70.66 		"/>
		<polygon fill="#010101" points="34.053,-70.66 29.635,-74.944 29.188,-74.511 33.605,-70.227 		"/>
		<polygon fill="#010101" points="29.635,-70.227 34.053,-74.511 33.605,-74.943 29.188,-70.66 		"/>
		<polygon fill="#010101" points="39.819,-70.66 35.401,-74.944 34.954,-74.511 39.372,-70.227 		"/>
		<polygon fill="#010101" points="35.401,-70.227 39.819,-74.511 39.371,-74.943 34.954,-70.66 		"/>
		<polygon fill="#010101" points="45.585,-70.66 41.167,-74.944 40.72,-74.511 45.138,-70.227 		"/>
		<polygon fill="#010101" points="41.167,-70.227 45.585,-74.511 45.137,-74.943 40.72,-70.66 		"/>
		<polygon fill="#010101" points="51.351,-70.66 46.933,-74.944 46.486,-74.511 50.904,-70.227 		"/>
		<polygon fill="#010101" points="46.933,-70.227 51.351,-74.511 50.903,-74.943 46.486,-70.66 		"/>
		<polygon fill="#010101" points="57.117,-70.66 52.699,-74.944 52.252,-74.511 56.67,-70.227 		"/>
		<polygon fill="#010101" points="52.7,-70.227 57.118,-74.511 56.669,-74.943 52.252,-70.66 		"/>
		<polygon fill="#010101" points="62.883,-70.66 58.465,-74.944 58.019,-74.511 62.437,-70.227 		"/>
		<polygon fill="#010101" points="58.466,-70.227 62.884,-74.511 62.436,-74.943 58.019,-70.66 		"/>
		<polygon fill="#010101" points="68.649,-70.66 64.231,-74.944 63.785,-74.511 68.203,-70.227 		"/>
		<polygon fill="#010101" points="64.232,-70.227 68.65,-74.511 68.202,-74.943 63.785,-70.66 		"/>
		<polygon fill="#010101" points="74.416,-70.66 69.998,-74.944 69.551,-74.511 73.969,-70.227 		"/>
		<polygon fill="#010101" points="69.998,-70.227 74.416,-74.511 73.968,-74.943 69.551,-70.66 		"/>
		<polygon fill="#010101" points="80.182,-70.66 75.764,-74.944 75.317,-74.511 79.735,-70.227 		"/>
		<polygon fill="#010101" points="75.764,-70.227 80.182,-74.511 79.734,-74.943 75.317,-70.66 		"/>
		<polygon fill="#010101" points="5.222,-76.035 0.804,-80.319 0.357,-79.885 4.775,-75.601 		"/>
		<polygon fill="#010101" points="0.804,-75.602 5.222,-79.885 4.774,-80.318 0.357,-76.035 		"/>
		<polygon fill="#010101" points="10.988,-76.035 6.57,-80.319 6.123,-79.885 10.541,-75.601 		"/>
		<polygon fill="#010101" points="6.57,-75.602 10.988,-79.885 10.54,-80.318 6.123,-76.035 		"/>
		<polygon fill="#010101" points="16.754,-76.035 12.336,-80.319 11.889,-79.885 16.307,-75.601 		"/>
		<polygon fill="#010101" points="12.336,-75.602 16.754,-79.885 16.306,-80.318 11.889,-76.035 		"/>
		<polygon fill="#010101" points="22.52,-76.035 18.102,-80.319 17.655,-79.885 22.073,-75.601 		"/>
		<polygon fill="#010101" points="18.103,-75.602 22.521,-79.885 22.072,-80.318 17.655,-76.035 		"/>
		<polygon fill="#010101" points="28.287,-76.035 23.868,-80.319 23.421,-79.885 27.839,-75.601 		"/>
		<polygon fill="#010101" points="23.869,-75.602 28.287,-79.885 27.839,-80.318 23.422,-76.035 		"/>
		<polygon fill="#010101" points="34.053,-76.035 29.635,-80.319 29.188,-79.885 33.605,-75.601 		"/>
		<polygon fill="#010101" points="29.635,-75.602 34.053,-79.885 33.605,-80.318 29.188,-76.035 		"/>
		<polygon fill="#010101" points="39.819,-76.035 35.401,-80.319 34.954,-79.885 39.372,-75.601 		"/>
		<polygon fill="#010101" points="35.401,-75.602 39.819,-79.885 39.371,-80.318 34.954,-76.035 		"/>
		<polygon fill="#010101" points="45.585,-76.035 41.167,-80.319 40.72,-79.885 45.138,-75.601 		"/>
		<polygon fill="#010101" points="41.167,-75.602 45.585,-79.885 45.137,-80.318 40.72,-76.035 		"/>
		<polygon fill="#010101" points="51.351,-76.035 46.933,-80.319 46.486,-79.885 50.904,-75.601 		"/>
		<polygon fill="#010101" points="46.933,-75.602 51.351,-79.885 50.903,-80.318 46.486,-76.035 		"/>
		<polygon fill="#010101" points="57.117,-76.035 52.699,-80.319 52.252,-79.885 56.67,-75.601 		"/>
		<polygon fill="#010101" points="52.7,-75.602 57.118,-79.885 56.669,-80.318 52.252,-76.035 		"/>
		<polygon fill="#010101" points="62.883,-76.035 58.465,-80.319 58.019,-79.885 62.437,-75.601 		"/>
		<polygon fill="#010101" points="58.466,-75.602 62.884,-79.885 62.436,-80.318 58.019,-76.035 		"/>
		<polygon fill="#010101" points="68.649,-76.035 64.231,-80.319 63.785,-79.885 68.203,-75.601 		"/>
		<polygon fill="#010101" points="64.232,-75.602 68.65,-79.885 68.202,-80.318 63.785,-76.035 		"/>
		<polygon fill="#010101" points="74.416,-76.035 69.998,-80.319 69.551,-79.885 73.969,-75.601 		"/>
		<polygon fill="#010101" points="69.998,-75.602 74.416,-79.885 73.968,-80.318 69.551,-76.035 		"/>
		<polygon fill="#010101" points="80.182,-76.035 75.764,-80.319 75.317,-79.885 79.735,-75.601 		"/>
		<polygon fill="#010101" points="75.764,-75.602 80.182,-79.885 79.734,-80.318 75.317,-76.035 		"/>
	</g>
</pattern>
<pattern  id="SVGID_1_" xlink:href="#Unnamed_Pattern" patternTransform="matrix(1 0 0 -1 1959.8652 416.748)">
</pattern>
<rect x="-575.611" y="-191.364" opacity="0.1" fill="url(#SVGID_1_)" width="1193.269" height="492.999"/>
</svg>
